<svg xmlns="http://www.w3.org/2000/svg" width="200" height="40" viewBox="0,0,200,40"><path d="M18 26 C88 23,101 5,186 29" stroke="#444" fill="none"/><path fill="#111" d="M135.85 14.44L135.83 14.42L135.71 14.30Q136.64 18.62 136.80 22.20L136.71 22.11L136.85 22.25Q137.97 22.34 139.03 22.34L138.99 22.30L141.24 22.35L141.06 22.16Q142.25 22.29 143.12 20.88L142.97 20.72L142.98 20.73Q143.78 19.63 143.90 18.45L143.93 18.49L143.83 18.39Q144.27 15.43 140.04 14.94L140.05 14.95L140.12 15.02Q138.31 14.84 135.68 14.27ZM136.78 24.93L136.76 24.91L136.84 24.99Q136.70 31.12 135.55 35.54L135.68 35.66L135.57 35.55Q134.12 35.97 131.80 37.04L131.90 37.14L131.75 36.99Q134.19 30.40 133.92 23.13L133.89 23.10L133.82 23.03Q133.55 15.68 130.77 9.25L130.79 9.26L130.75 9.23Q135.01 12.12 141.25 12.12L141.29 12.15L141.16 12.02Q147.36 12.17 147.51 15.63L147.35 15.47L147.33 15.45Q147.50 17.98 146.51 20.65L146.48 20.62L146.53 20.67Q146.18 21.84 145.23 23.06L145.17 22.99L145.06 22.89Q143.76 24.52 141.21 24.79L141.34 24.92L141.26 24.84Q139.10 24.96 136.85 25.00ZM143.02 27.28L142.90 27.16L142.90 27.16Q147.04 27.38 148.30 22.58L148.35 22.64L148.34 22.63Q149.25 18.93 149.10 16.91L149.04 16.86L149.14 16.96Q149.08 15.49 148.32 14.50L148.24 14.42L148.35 14.53Q147.91 14.09 147.42 13.86L147.36 13.80L147.44 13.89Q147.34 13.64 146.74 12.88L146.80 12.94L146.87 13.01Q145.22 11.59 141.26 11.59L141.33 11.66L141.25 11.58Q134.50 11.72 130.28 8.56L130.15 8.44L130.20 8.49Q133.25 15.45 133.51 22.92L133.54 22.94L133.66 23.06Q133.85 30.63 131.18 37.72L131.15 37.69L131.19 37.72Q132.25 37.07 133.24 36.69L133.31 36.76L132.91 37.89L132.82 37.80Q132.72 38.45 132.45 39.02L132.55 39.12L132.56 39.13Q134.80 37.91 137.70 37.38L137.70 37.39L137.88 37.56Q138.55 31.87 138.62 27.15L138.80 27.33L138.79 27.32Q139.81 27.15 140.80 27.15L140.81 27.17L140.70 27.06Q142.19 27.21 142.99 27.25ZM141.93 17.20L141.90 17.18L141.90 17.17Q142.55 17.33 143.54 17.56L143.49 17.52L143.54 17.56Q143.53 17.67 143.57 17.97L143.68 18.08L143.63 18.03Q143.60 18.23 143.52 18.50L143.56 18.54L143.61 18.58Q143.56 19.87 142.84 20.75L142.78 20.68L142.70 20.61Q142.14 21.68 141.11 21.87L141.21 21.97L141.21 21.97Q140.47 21.96 138.83 21.96L138.75 21.87L138.78 21.90Q138.75 19.63 138.53 17.27L138.42 17.16L140.31 17.37L140.32 17.38Q141.02 17.25 141.90 17.18Z"/><path fill="#111" d="M28.61 34.92L28.61 34.92L26.57 34.82L26.64 34.90Q25.68 34.88 24.73 35.00L24.69 34.96L24.73 35.00Q25.28 28.78 25.28 24.78L25.30 24.80L25.36 24.86Q21.31 18.10 13.65 9.42L13.73 9.50L13.64 9.41Q15.36 10.33 18.71 11.13L18.69 11.11L18.77 11.19Q23.90 16.85 26.91 22.07L26.80 21.96L26.84 22.00Q29.92 16.52 34.30 11.49L34.27 11.46L34.19 11.38Q36.58 10.96 39.10 10.16L39.09 10.15L39.19 10.25Q33.06 16.26 28.18 24.67L28.15 24.65L28.24 24.73Q28.15 31.68 28.45 34.76ZM37.69 12.33L40.42 9.50L40.30 9.38Q37.27 10.61 34.15 11.07L34.21 11.13L34.17 11.09Q29.92 15.79 27.10 20.89L27.07 20.86L27.04 20.83Q24.93 17.20 21.73 13.31L21.80 13.38L21.80 13.38Q21.46 13.30 20.96 13.23L20.96 13.23L21.03 13.30Q20.32 12.47 18.80 10.80L18.74 10.74L18.79 10.79Q15.39 10.01 12.42 8.45L12.46 8.49L12.45 8.48Q20.12 16.92 24.88 24.83L24.99 24.95L24.93 24.89Q24.89 31.28 24.28 35.43L24.21 35.36L24.10 35.25Q24.96 35.34 26.40 35.23L26.44 35.27L26.33 36.18L26.32 36.17Q26.37 36.68 26.29 37.21L26.34 37.26L26.27 37.19Q29.90 37.28 31.65 37.47L31.61 37.43L31.67 37.49Q30.35 32.74 30.24 26.77L30.34 26.87L30.16 26.69Q34.53 18.23 41.08 10.88L41.23 11.03L37.60 12.24Z"/><path fill="#111" d="M82.13 14.64L82.09 14.60L82.20 14.72Q80.14 14.75 79.19 14.90L79.18 14.90L79.14 14.85Q77.68 15.26 76.46 15.79L76.37 15.70L76.31 15.64Q72.92 17.20 72.81 21.88L72.67 21.75L72.81 21.89Q72.59 24.41 73.24 27.34L73.32 27.42L73.37 27.47Q74.22 31.48 77.83 32.66L77.91 32.73L77.80 32.62Q79.78 33.27 81.23 33.12L81.12 33.02L81.52 32.95L81.54 32.97Q81.76 33.01 81.95 33.05L81.99 33.08L82.03 33.12Q82.03 32.97 82.18 32.93L82.23 32.98L82.28 33.03Q84.86 32.72 86.23 32.15L86.19 32.10L82.65 28.61L82.66 28.61Q82.96 28.27 83.57 27.66L83.69 27.78L84.56 26.82L84.50 26.76Q86.34 28.83 88.32 30.89L88.40 30.97L88.29 30.85Q90.63 29.04 90.89 23.68L90.88 23.66L90.98 23.77Q91.08 22.87 91.08 21.96L90.95 21.83L91.02 21.90Q91.06 16.27 86.00 15.16L85.95 15.12L85.95 15.12Q84.73 14.88 82.21 14.73ZM94.83 36.63L94.92 36.73L94.92 36.73Q94.39 37.22 93.21 38.09L93.06 37.95L88.79 34.40L88.82 34.43Q86.36 35.66 82.09 35.70L81.98 35.59L82.08 35.69Q75.44 35.70 72.62 33.46L72.63 33.47L72.65 33.49Q70.87 31.70 70.41 28.74L70.44 28.77L70.46 28.78Q70.13 26.86 69.75 23.28L69.91 23.45L69.80 23.33Q69.78 22.59 69.66 20.83L69.64 20.81L69.71 20.88Q69.46 19.22 69.50 18.34L69.51 18.36L69.68 18.53Q69.70 15.39 71.45 13.83L71.41 13.78L71.44 13.82Q72.89 12.42 76.09 11.92L76.16 11.99L76.22 12.05Q78.59 11.56 81.48 11.63L81.51 11.66L81.51 11.67Q89.12 11.89 92.25 14.26L92.20 14.21L92.10 14.11Q94.26 16.23 93.99 21.14L94.05 21.20L94.15 21.30Q93.83 24.83 93.64 26.16L93.72 26.23L93.72 26.24Q93.07 30.72 90.75 33.05L90.78 33.08L90.77 33.07Q92.19 34.26 94.93 36.73ZM90.17 12.56L90.02 12.41L89.97 12.36Q88.03 11.72 81.52 11.22L81.53 11.23L81.55 11.25Q80.24 11.34 77.46 11.46L77.42 11.42L77.45 11.45Q73.27 11.72 71.02 13.70L70.87 13.55L71.02 13.70Q69.35 15.15 69.35 18.31L69.25 18.22L69.32 18.28Q69.18 18.98 69.33 20.69L69.44 20.80L69.47 20.83Q69.54 22.46 69.54 23.33L69.48 23.27L69.56 23.36Q69.73 25.13 70.11 28.71L70.05 28.65L70.14 28.73Q70.41 31.52 72.01 33.57L72.05 33.61L71.97 33.53Q72.34 34.40 73.56 35.54L73.60 35.59L73.53 35.52Q76.33 37.59 81.51 37.86L81.61 37.95L81.52 37.86Q81.92 37.92 84.32 38.04L84.30 38.02L84.17 37.89Q89.13 38.20 91.41 37.14L91.35 37.08L91.35 37.08Q92.28 37.81 97.00 41.39L96.95 41.35L96.87 41.27Q97.48 40.73 98.78 39.75L98.91 39.88L98.88 39.85Q97.85 39.01 97.05 38.33L97.16 38.43L95.57 37.04L95.50 36.81L95.63 36.94Q95.08 36.51 93.86 35.48L93.71 35.32L93.78 35.39Q95.76 32.96 95.76 28.43L95.68 28.35L95.67 28.34Q95.67 27.92 95.71 27.08L95.78 27.15L95.79 27.16Q95.85 26.34 95.85 25.93L95.88 25.96L95.87 25.95Q95.73 20.29 95.00 17.93L95.12 18.04L95.08 18.00Q94.72 16.73 93.85 15.67L93.79 15.61L93.87 15.69Q92.98 13.47 90.05 12.44ZM84.03 17.00L84.15 17.12L84.09 17.06Q88.22 17.04 90.05 18.64L89.96 18.56L89.98 18.57Q90.53 19.77 90.64 21.10L90.73 21.19L90.57 21.03Q90.82 22.46 90.74 23.83L90.67 23.76L90.62 23.71Q90.37 28.75 88.43 30.46L88.26 30.30L88.32 30.35Q87.13 29.16 84.62 26.42L84.64 26.44L84.57 26.38Q83.69 27.02 82.13 28.58L82.26 28.71L82.27 28.72Q82.70 29.19 83.85 30.37L83.96 30.49L83.90 30.53L83.92 30.56Q84.45 31.05 85.48 32.12L85.39 32.03L85.39 32.03Q84.34 32.24 82.02 32.54L82.04 32.56L81.49 32.54L81.26 32.74L81.14 32.66L81.14 32.65Q77.67 32.65 75.69 31.01L75.73 31.05L75.65 30.97Q74.76 29.02 74.80 25.89L74.64 25.74L74.79 25.88Q74.88 17.11 84.06 17.03Z"/><path d="M20 2 C82 31,92 21,185 30" stroke="#555" fill="none"/><path fill="#333" d="M164.03 14.33L164.11 14.41L164.03 14.33Q164.90 18.59 165.05 22.17L165.11 22.23L164.99 22.11Q166.24 22.34 167.31 22.34L167.19 22.22L169.39 22.20L169.42 22.24Q170.44 22.19 171.32 20.78L171.23 20.70L171.25 20.72Q172.08 19.64 172.19 18.46L172.24 18.51L172.08 18.35Q172.61 15.50 168.39 15.00L168.40 15.01L168.24 14.85Q166.78 15.03 164.16 14.46ZM165.00 24.86L165.18 25.04L165.10 24.97Q165.06 31.20 163.91 35.61L163.82 35.52L163.87 35.56Q162.47 36.03 160.14 37.10L160.09 37.04L160.12 37.08Q162.51 30.44 162.24 23.17L162.15 23.08L162.18 23.11Q161.86 15.70 159.08 9.27L159.18 9.37L159.06 9.25Q163.26 12.08 169.51 12.08L169.55 12.13L169.48 12.06Q175.46 11.98 175.61 15.45L175.68 15.52L175.80 15.64Q175.79 17.99 174.80 20.65L174.77 20.62L174.73 20.58Q174.47 21.84 173.52 23.06L173.36 22.90L173.37 22.91Q172.13 24.60 169.58 24.87L169.59 24.88L169.59 24.88Q167.26 24.84 165.02 24.88ZM171.30 27.28L171.27 27.25L171.20 27.18Q175.31 27.36 176.56 22.56L176.63 22.63L176.68 22.68Q177.64 19.04 177.49 17.02L177.48 17.02L177.38 16.91Q177.25 15.37 176.49 14.38L176.56 14.45L176.48 14.37Q176.18 14.07 175.69 13.85L175.63 13.79L175.70 13.86Q175.81 13.82 175.20 13.06L175.12 12.97L175.03 12.88Q173.47 11.56 169.51 11.56L169.59 11.63L169.50 11.55Q162.77 11.70 158.54 8.54L158.56 8.56L158.43 8.43Q161.71 15.63 161.97 23.09L161.82 22.94L161.99 23.11Q162.10 30.60 159.44 37.69L159.53 37.78L159.48 37.73Q160.54 37.08 161.53 36.70L161.58 36.74L161.23 37.91L161.19 37.87Q160.97 38.42 160.70 38.99L160.70 38.99L160.68 38.97Q163.20 38.02 166.10 37.49L166.12 37.51L166.10 37.49Q166.99 32.03 167.07 27.31L167.04 27.28L166.98 27.22Q168.09 27.15 169.08 27.15L169.08 27.16L169.07 27.14Q170.33 27.07 171.13 27.11ZM170.33 17.32L170.32 17.31L170.20 17.20Q170.86 17.36 171.85 17.59L171.72 17.45L171.81 17.55Q171.92 17.77 171.96 18.08L171.94 18.05L171.86 17.98Q172.04 18.38 171.96 18.65L171.78 18.47L171.83 18.52Q171.69 19.71 170.97 20.59L171.06 20.68L171.03 20.65Q170.55 21.81 169.52 22.00L169.45 21.93L169.51 21.99Q168.61 21.81 166.97 21.81L166.95 21.79L166.97 21.80Q166.94 19.53 166.71 17.17L166.81 17.27L168.47 17.26L168.45 17.24Q169.48 17.42 170.35 17.35Z"/><path fill="#444" d="M110.24 24.20L110.19 24.15L110.22 24.18Q108.40 24.22 107.18 25.55L107.22 25.60L107.10 25.47Q105.85 26.78 105.70 28.68L105.87 28.85L105.72 28.70Q105.52 30.82 106.74 31.83L106.80 31.89L106.81 31.90Q108.03 32.91 110.16 32.83L110.24 32.92L110.17 32.85Q112.44 32.64 113.40 31.69L113.37 31.67L113.41 31.71Q114.44 30.27 114.33 28.44L114.40 28.51L114.42 28.53Q114.26 26.62 113.18 25.42L113.22 25.46L113.09 25.33Q111.99 24.12 110.17 24.12ZM110.22 14.78L110.25 14.81L110.23 14.79Q108.78 14.63 107.45 15.12L107.48 15.16L107.44 15.12Q106.15 15.92 106.38 17.79L106.39 17.79L106.35 17.76Q106.87 21.51 110.22 21.51L110.31 21.61L110.21 21.50Q111.76 21.68 112.75 20.54L112.84 20.63L112.74 20.53Q113.76 19.42 113.80 17.86L113.71 17.77L113.87 17.93Q113.81 16.04 113.09 15.43L113.25 15.59L113.15 15.50Q111.42 14.60 110.12 14.68ZM110.00 35.38L109.87 35.25L106.89 35.31L106.83 35.26Q105.38 35.32 104.04 34.45L103.94 34.34L103.98 34.38Q102.72 33.35 102.87 30.49L102.88 30.50L102.80 30.43Q103.28 23.60 106.90 22.61L106.84 22.55L106.78 22.49Q104.65 21.73 103.32 16.36L103.17 16.21L103.20 16.24Q102.94 14.92 103.02 14.12L102.92 14.02L103.05 14.15Q103.28 11.94 106.97 11.91L107.06 11.99L106.96 11.89Q111.22 11.86 112.67 12.05L112.62 12.00L112.61 11.99Q116.50 12.56 116.96 14.58L117.06 14.68L116.88 14.50Q117.06 15.18 117.06 15.56L117.11 15.61L117.10 15.60Q117.14 16.33 116.95 16.93L116.86 16.84L116.88 16.86Q116.31 21.13 113.38 22.66L113.40 22.67L113.37 22.64Q116.95 23.52 117.45 28.82L117.44 28.81L117.38 28.75Q117.25 28.77 117.29 30.07L117.38 30.15L117.31 30.09Q117.44 32.89 115.84 33.95L115.94 34.04L115.95 34.06Q114.41 34.76 109.84 35.22ZM112.25 37.67L112.23 37.65L115.61 37.75L115.58 37.72Q117.37 37.87 118.89 37.15L118.72 36.97L118.72 36.98Q119.85 36.25 119.93 34.38L120.00 34.45L119.99 34.44Q120.10 33.41 119.71 31.46L119.71 31.46L119.61 31.36Q118.80 26.82 116.70 24.95L116.60 24.85L116.57 24.62L116.35 24.33L116.17 24.03L116.19 24.05Q117.81 22.67 118.72 18.52L118.63 18.42L118.63 18.43Q118.63 18.04 118.70 17.20L118.74 17.24L118.74 17.24Q118.93 16.67 118.85 16.06L118.84 16.04L118.85 16.06Q118.70 14.61 117.52 14.12L117.42 14.02L117.48 14.04L117.33 13.96L117.18 13.82Q117.09 13.27 115.91 12.47L115.90 12.46L115.79 12.31L115.88 12.40Q113.93 11.75 109.86 11.56L109.81 11.51L109.88 11.58Q108.30 11.45 106.93 11.56L106.93 11.56L106.97 11.60Q106.14 11.61 104.85 11.76L104.75 11.66L104.83 11.75Q102.84 12.08 102.61 13.71L102.57 13.67L102.68 13.78Q102.56 14.19 102.60 14.99L102.62 15.02L102.63 15.03Q102.80 15.62 103.37 17.98L103.33 17.93L103.38 17.98Q104.09 21.13 105.84 22.46L105.88 22.50L105.84 22.46L105.85 22.47Q103.16 23.86 102.63 29.03L102.70 29.11L102.53 28.94Q102.37 31.17 102.37 32.09L102.40 32.12L102.41 32.12Q102.53 33.96 103.71 34.88L103.71 34.87L103.61 34.77Q103.86 34.99 104.13 35.18L104.13 35.18L104.13 35.18Q105.14 37.44 112.25 37.67ZM111.84 26.52L111.94 26.62L111.80 26.48Q112.83 26.52 113.71 26.98L113.70 26.97L113.61 26.88Q113.97 27.85 113.94 28.39L114.01 28.46L114.06 28.51Q114.06 28.78 114.06 29.08L114.06 29.09L113.96 28.98Q114.11 31.49 111.83 32.33L111.67 32.18L111.83 32.34Q110.93 32.54 110.14 32.43L110.20 32.50L110.13 32.42Q109.12 32.63 107.98 32.17L107.81 32.01L108.00 32.20Q107.54 31.36 107.62 30.37L107.69 30.44L107.67 30.42Q107.91 28.91 109.11 27.70L109.16 27.74L108.99 27.57Q110.31 26.47 111.91 26.59ZM112.11 17.08L112.14 17.11L112.00 16.97Q112.80 16.86 113.33 17.01L113.47 17.15L113.37 17.85L113.39 17.86Q113.38 19.27 112.47 20.28L112.49 20.30L112.56 20.37Q111.63 21.36 110.26 21.17L110.32 21.23L110.29 21.20Q109.26 21.16 108.84 20.93L108.80 20.89L108.88 20.97Q108.81 20.67 108.69 19.98L108.59 19.88L108.63 19.93Q108.46 18.61 109.67 17.77L109.53 17.62L109.62 17.72Q110.65 16.99 112.06 17.03Z"/><path fill="#222" d="M55.35 35.19L55.34 35.17L53.13 35.25L53.10 35.22Q52.64 35.22 51.67 35.28L51.81 35.42L51.66 35.27Q50.85 35.48 50.36 35.48L50.29 35.41L50.25 35.38Q48.60 35.37 47.58 34.53L47.67 34.62L47.71 34.66Q48.49 33.55 50.13 31.41L50.03 31.31L50.12 31.41Q51.41 33.00 53.62 32.77L53.46 32.61L53.46 32.61Q54.43 32.56 55.08 31.91L55.01 31.84L55.10 31.93Q55.79 31.33 55.68 30.45L55.53 30.30L55.66 30.43Q55.46 25.75 55.54 21.18L55.50 21.13L55.50 21.14Q55.58 16.57 56.11 11.96L56.25 12.11L56.12 11.97Q58.11 11.83 60.25 10.81L60.25 10.82L60.26 10.82Q58.32 17.49 58.32 24.72L58.28 24.67L58.32 24.72Q58.36 28.30 58.82 31.80L58.88 31.86L58.82 31.81Q58.83 32.08 58.83 32.42L58.95 32.54L58.83 32.43Q58.88 33.04 58.65 33.58L58.70 33.63L58.75 33.68Q58.05 34.81 55.24 35.07ZM60.24 37.98L60.24 37.98L60.52 37.92L60.80 37.78L61.02 37.62L61.06 37.66Q61.43 37.46 61.51 37.35L61.48 37.32L61.58 37.42Q61.62 36.09 61.35 35.10L61.35 35.09L61.39 35.13Q60.08 29.37 60.35 23.02L60.37 23.04L60.29 22.96Q60.51 16.82 62.30 10.91L62.36 10.98L62.45 11.07Q61.41 11.55 60.15 12.27L60.18 12.30L60.32 12.44Q60.46 11.63 60.88 10.10L60.81 10.04L60.91 10.14Q58.27 11.34 55.60 11.65L55.75 11.79L55.69 11.74Q55.23 16.03 55.16 20.98L55.23 21.06L55.26 21.09Q55.08 26.88 55.15 30.31L55.31 30.46L55.21 30.36Q55.24 32.11 53.49 32.26L53.46 32.23L53.58 32.35Q51.84 32.44 50.17 30.80L50.18 30.82L50.10 30.74Q48.05 33.25 47.10 34.82L47.10 34.82L47.20 34.91Q47.75 35.47 48.78 35.70L48.74 35.65L48.86 35.77Q48.82 35.97 48.56 36.20L48.55 36.19L48.39 36.03Q49.88 37.02 51.86 37.29L51.82 37.25L51.86 37.29Q52.24 37.33 55.54 37.64L55.56 37.66L55.63 37.73Q58.86 37.97 60.23 37.97Z"/></svg>